<svg xmlns="http://www.w3.org/2000/svg" xmlns:xlink="http://www.w3.org/1999/xlink" width="1000" height="1500" viewBox="0 0 1000 1500">
  <defs>
    <clipPath id="clip-path">
      <rect x="500" width="500" height="1000" fill="none"/>
    </clipPath>
  </defs>
  <g id="Group_110" data-name="Group 110" transform="translate(-401 -194)">
    <g id="Path_3" data-name="Path 3" transform="translate(401 194)" fill="#fa6400">
      <path d="M 999.5 499.5 L 0.5 499.5 L 0.5 0.5 L 999.5 0.5 L 999.5 499.5 Z" stroke="none"/>
      <path d="M 1 1 L 1 499 L 999 499 L 999 1 L 1 1 M 0 0 L 1000 0 L 1000 500 L 0 500 L 0 0 Z" stroke="none" fill="#fa6400"/>
    </g>
    <g id="Path_4" data-name="Path 4" transform="translate(401 1194)" fill="#f7ab49">
      <path d="M 250 499.5 C 233.0714416503906 499.5 216.1536254882812 497.7945556640625 199.7165069580078 494.4310607910156 C 183.6974334716797 491.153076171875 167.9405059814453 486.2618103027344 152.8834991455078 479.8932495117188 C 138.0996856689453 473.6402587890625 123.840690612793 465.9006958007812 110.5025024414062 456.8896179199219 C 97.29093933105469 447.9640502929688 84.86737823486328 437.713623046875 73.57687377929688 426.4231262207031 C 62.28637313842773 415.1326293945312 52.03593826293945 402.7090759277344 43.11037445068359 389.4974975585938 C 34.09931182861328 376.1593017578125 26.35975074768066 361.9002990722656 20.10675048828125 347.1164855957031 C 13.73818778991699 332.0595092773438 8.84693717956543 316.3025512695312 5.568937301635742 300.2835083007812 C 2.205437421798706 283.8463745117188 0.5 266.9285583496094 0.5 250 C 0.5 233.0714416503906 2.205437421798706 216.1536254882812 5.568937301635742 199.7165069580078 C 8.84693717956543 183.6974334716797 13.73818778991699 167.9405059814453 20.10675048828125 152.8834991455078 C 26.35975074768066 138.0996856689453 34.09931182861328 123.840690612793 43.11037445068359 110.5025024414062 C 52.03593826293945 97.29093933105469 62.28637313842773 84.86737823486328 73.57687377929688 73.57687377929688 C 84.86737823486328 62.28637313842773 97.29093933105469 52.03593826293945 110.5025024414062 43.11037445068359 C 123.840690612793 34.09931182861328 138.0996856689453 26.35975074768066 152.8834991455078 20.10675048828125 C 167.9405059814453 13.73818778991699 183.6974334716797 8.84693717956543 199.7165069580078 5.568937301635742 C 216.1536254882812 2.205437421798706 233.0714416503906 0.5 250 0.5 C 266.9285583496094 0.5 283.8463745117188 2.205437421798706 300.2835083007812 5.568937301635742 C 316.3025512695312 8.84693717956543 332.0595092773438 13.73818778991699 347.1164855957031 20.10675048828125 C 361.9002990722656 26.35975074768066 376.1593017578125 34.09931182861328 389.4974975585938 43.11037445068359 C 402.7090759277344 52.03593826293945 415.1326293945312 62.28637313842773 426.4231262207031 73.57687377929688 C 437.713623046875 84.86737823486328 447.9640502929688 97.29093933105469 456.8896179199219 110.5025024414062 C 465.9006958007812 123.840690612793 473.6402587890625 138.0996856689453 479.8932495117188 152.8834991455078 C 486.2618103027344 167.9405059814453 491.153076171875 183.6974334716797 494.4310607910156 199.7165069580078 C 497.7945556640625 216.1536254882812 499.5 233.0714416503906 499.5 250 C 499.5 266.9285583496094 497.7945556640625 283.8463745117188 494.4310607910156 300.2835083007812 C 491.153076171875 316.3025512695312 486.2618103027344 332.0595092773438 479.8932495117188 347.1164855957031 C 473.6402587890625 361.9002990722656 465.9006958007812 376.1593017578125 456.8896179199219 389.4974975585938 C 447.9640502929688 402.7090759277344 437.713623046875 415.1326293945312 426.4231262207031 426.4231262207031 C 415.1326293945312 437.713623046875 402.7090759277344 447.9640502929688 389.4974975585938 456.8896179199219 C 376.1593017578125 465.9006958007812 361.9002990722656 473.6402587890625 347.1164855957031 479.8932495117188 C 332.0595092773438 486.2618103027344 316.3025512695312 491.153076171875 300.2835083007812 494.4310607910156 C 283.8463745117188 497.7945556640625 266.9285583496094 499.5 250 499.5 Z" stroke="none"/>
      <path d="M 250 1 C 233.1050109863281 1 216.220947265625 2.701995849609375 199.8167419433594 6.058807373046875 C 183.8299865722656 9.3302001953125 168.1048889160156 14.21148681640625 153.0782470703125 20.5672607421875 C 138.3241882324219 26.80767822265625 124.0938110351562 34.53167724609375 110.7824401855469 43.52468872070312 C 97.59725952148438 52.43243408203125 85.19842529296875 62.66238403320312 73.93045043945312 73.93045043945312 C 62.66238403320312 85.19842529296875 52.43243408203125 97.59725952148438 43.52468872070312 110.7824401855469 C 34.53167724609375 124.0938110351562 26.80767822265625 138.3241882324219 20.5672607421875 153.0782470703125 C 14.21148681640625 168.1048889160156 9.3302001953125 183.8299865722656 6.058807373046875 199.8167419433594 C 2.701995849609375 216.220947265625 1 233.1050109863281 1 250 C 1 266.89501953125 2.701995849609375 283.779052734375 6.058807373046875 300.1832275390625 C 9.3302001953125 316.1699829101562 14.21148681640625 331.8951416015625 20.5672607421875 346.9217529296875 C 26.80767822265625 361.6758117675781 34.53167724609375 375.9061889648438 43.52468872070312 389.2175598144531 C 52.43243408203125 402.4027404785156 62.66238403320312 414.8015747070312 73.93045043945312 426.069580078125 C 85.19842529296875 437.3376159667969 97.59725952148438 447.5675659179688 110.7824401855469 456.4753112792969 C 124.0938110351562 465.4683227539062 138.3241882324219 473.1923217773438 153.0782470703125 479.4327392578125 C 168.1048889160156 485.7885131835938 183.8299865722656 490.6697998046875 199.8167419433594 493.9411926269531 C 216.220947265625 497.2980041503906 233.1050109863281 499 250 499 C 266.89501953125 499 283.779052734375 497.2980041503906 300.1832275390625 493.9411926269531 C 316.1699829101562 490.6697998046875 331.8951416015625 485.7885131835938 346.9217529296875 479.4327392578125 C 361.6758117675781 473.1923217773438 375.9061889648438 465.4683227539062 389.2175598144531 456.4753112792969 C 402.4027404785156 447.5675659179688 414.8015747070312 437.3376159667969 426.069580078125 426.069580078125 C 437.3376159667969 414.8015747070312 447.5675659179688 402.4027404785156 456.4753112792969 389.2175598144531 C 465.4683227539062 375.9061889648438 473.1923217773438 361.6758117675781 479.4327392578125 346.9217529296875 C 485.7885131835938 331.8951416015625 490.6697998046875 316.1699829101562 493.9411926269531 300.1832275390625 C 497.2980041503906 283.779052734375 499 266.89501953125 499 250 C 499 233.1050109863281 497.2980041503906 216.220947265625 493.9411926269531 199.8167419433594 C 490.6697998046875 183.8299865722656 485.7885131835938 168.1048889160156 479.4327392578125 153.0782470703125 C 473.1923217773438 138.3241882324219 465.4683227539062 124.0938110351562 456.4753112792969 110.7824401855469 C 447.5675659179688 97.59725952148438 437.3376159667969 85.19842529296875 426.069580078125 73.93045043945312 C 414.8015747070312 62.66238403320312 402.4027404785156 52.43243408203125 389.2175598144531 43.52468872070312 C 375.9061889648438 34.53167724609375 361.6758117675781 26.80767822265625 346.9217529296875 20.5672607421875 C 331.8951416015625 14.21148681640625 316.1699829101562 9.3302001953125 300.1832275390625 6.058807373046875 C 283.779052734375 2.701995849609375 266.89501953125 1 250 1 M 250 0 C 388.0711975097656 0 500 111.9288024902344 500 250 C 500 388.0711975097656 388.0711975097656 500 250 500 C 111.9288024902344 500 0 388.0711975097656 0 250 C 0 111.9288024902344 111.9288024902344 0 250 0 Z" stroke="none" fill="#f7ab49"/>
    </g>
    <g id="Scroll_Group_2" data-name="Scroll Group 2" transform="translate(401 694)" clip-path="url(#clip-path)" style="isolation: isolate">
      <g id="Path_1047" data-name="Path 1047" fill="#142450">
        <path d="M 500 999.5 C 482.9614868164062 999.5 465.7785034179688 998.6323852539062 448.9283752441406 996.921142578125 C 432.3222351074219 995.234619140625 415.6358642578125 992.68798828125 399.332763671875 989.3518676757812 C 383.2406311035156 986.0590209960938 367.13525390625 981.9178466796875 351.4637451171875 977.0435180664062 C 335.9677429199219 972.2237548828125 320.5276184082031 966.5726318359375 305.5722351074219 960.2470092773438 C 290.7550048828125 953.9798583984375 276.0645141601562 946.9031372070312 261.9089965820312 939.21337890625 C 247.85400390625 931.5782470703125 233.9977569580078 923.160400390625 220.7251281738281 914.1934814453125 C 207.5166320800781 905.27001953125 194.5789947509766 895.5955200195312 182.2718811035156 885.4385986328125 C 169.99462890625 875.306640625 158.0602569580078 864.4600219726562 146.8001251220703 853.1998901367188 C 135.5399932861328 841.9397583007812 124.6933746337891 830.00537109375 114.5613784790039 817.7281494140625 C 104.4045028686523 805.4210205078125 94.73000335693359 792.4833984375 85.80650329589844 779.27490234375 C 76.83962249755859 766.0022583007812 68.4217529296875 752.14599609375 60.78662490844727 738.0910034179688 C 53.09687423706055 723.9354858398438 46.02012634277344 709.2449951171875 39.75299835205078 694.427734375 C 33.42737579345703 679.4723510742188 27.7762508392334 664.0322265625 22.95649909973145 648.5362548828125 C 18.08212471008301 632.86474609375 13.94099998474121 616.7593994140625 10.64812469482422 600.667236328125 C 7.311999797821045 584.3641357421875 4.765375137329102 567.677734375 3.078875064849854 551.0716552734375 C 1.367624998092651 534.2214965820312 0.5 517.0385131835938 0.5 500 C 0.5 482.9614868164062 1.367624998092651 465.7785034179688 3.078875064849854 448.9283752441406 C 4.765375137329102 432.3222351074219 7.311999797821045 415.6358642578125 10.64812469482422 399.332763671875 C 13.94099998474121 383.2406311035156 18.08212471008301 367.13525390625 22.95649909973145 351.4637451171875 C 27.7762508392334 335.9677429199219 33.42737579345703 320.5276184082031 39.75299835205078 305.5722351074219 C 46.02012634277344 290.7550048828125 53.09687423706055 276.0645141601562 60.78662490844727 261.9089965820312 C 68.4217529296875 247.85400390625 76.83962249755859 233.9977569580078 85.80650329589844 220.7251281738281 C 94.73000335693359 207.5166320800781 104.4045028686523 194.5789947509766 114.5613784790039 182.2718811035156 C 124.6933746337891 169.99462890625 135.5399932861328 158.0602569580078 146.8001251220703 146.8001251220703 C 158.0602569580078 135.5399932861328 169.99462890625 124.6933746337891 182.2718811035156 114.5613784790039 C 194.5789947509766 104.4045028686523 207.5166320800781 94.73000335693359 220.7251281738281 85.80650329589844 C 233.9977569580078 76.83962249755859 247.85400390625 68.4217529296875 261.9089965820312 60.78662490844727 C 276.0645141601562 53.09687423706055 290.7550048828125 46.02012634277344 305.5722351074219 39.75299835205078 C 320.5276184082031 33.42737579345703 335.9677429199219 27.7762508392334 351.4637451171875 22.95649909973145 C 367.13525390625 18.08212471008301 383.2406311035156 13.94099998474121 399.332763671875 10.64812469482422 C 415.6358642578125 7.311999797821045 432.3222351074219 4.765375137329102 448.9283752441406 3.078875064849854 C 465.7785034179688 1.367624998092651 482.9614868164062 0.5 500 0.5 C 517.0385131835938 0.5 534.2214965820312 1.367624998092651 551.0716552734375 3.078875064849854 C 567.677734375 4.765375137329102 584.3641357421875 7.311999797821045 600.667236328125 10.64812469482422 C 616.7593994140625 13.94099998474121 632.86474609375 18.08212471008301 648.5362548828125 22.95649909973145 C 664.0322265625 27.7762508392334 679.4723510742188 33.42737579345703 694.427734375 39.75299835205078 C 709.2449951171875 46.02012634277344 723.9354858398438 53.09687423706055 738.0910034179688 60.78662490844727 C 752.14599609375 68.4217529296875 766.0022583007812 76.83962249755859 779.27490234375 85.80650329589844 C 792.4833984375 94.73000335693359 805.4210205078125 104.4045028686523 817.7281494140625 114.5613784790039 C 830.00537109375 124.6933746337891 841.9397583007812 135.5399932861328 853.1998901367188 146.8001251220703 C 864.4600219726562 158.0602569580078 875.306640625 169.99462890625 885.4385986328125 182.2718811035156 C 895.5955200195312 194.5789947509766 905.27001953125 207.5166320800781 914.1934814453125 220.7251281738281 C 923.160400390625 233.9977569580078 931.5782470703125 247.85400390625 939.21337890625 261.9089965820312 C 946.9031372070312 276.0645141601562 953.9798583984375 290.7550048828125 960.2470092773438 305.5722351074219 C 966.5726318359375 320.5276184082031 972.2237548828125 335.9677429199219 977.0435180664062 351.4637451171875 C 981.9178466796875 367.13525390625 986.0590209960938 383.2406311035156 989.3518676757812 399.332763671875 C 992.68798828125 415.6358642578125 995.234619140625 432.3222351074219 996.921142578125 448.9283752441406 C 998.6323852539062 465.7785034179688 999.5 482.9614868164062 999.5 500 C 999.5 517.0385131835938 998.6323852539062 534.2214965820312 996.921142578125 551.0716552734375 C 995.234619140625 567.677734375 992.68798828125 584.3641357421875 989.3518676757812 600.667236328125 C 986.0590209960938 616.7593994140625 981.9178466796875 632.86474609375 977.0435180664062 648.5362548828125 C 972.2237548828125 664.0322265625 966.5726318359375 679.4723510742188 960.2470092773438 694.427734375 C 953.9798583984375 709.2449951171875 946.9031372070312 723.9354858398438 939.21337890625 738.0910034179688 C 931.5782470703125 752.14599609375 923.160400390625 766.0022583007812 914.1934814453125 779.27490234375 C 905.27001953125 792.4833984375 895.5955200195312 805.4210205078125 885.4385986328125 817.7281494140625 C 875.306640625 830.00537109375 864.4600219726562 841.9397583007812 853.1998901367188 853.1998901367188 C 841.9397583007812 864.4600219726562 830.00537109375 875.306640625 817.7281494140625 885.4385986328125 C 805.4210205078125 895.5955200195312 792.4833984375 905.27001953125 779.27490234375 914.1934814453125 C 766.0022583007812 923.160400390625 752.14599609375 931.5782470703125 738.0910034179688 939.21337890625 C 723.9354858398438 946.9031372070312 709.2449951171875 953.9798583984375 694.427734375 960.2470092773438 C 679.4723510742188 966.5726318359375 664.0322265625 972.2237548828125 648.5362548828125 977.0435180664062 C 632.86474609375 981.9178466796875 616.7593994140625 986.0590209960938 600.667236328125 989.3518676757812 C 584.3641357421875 992.68798828125 567.677734375 995.234619140625 551.0716552734375 996.921142578125 C 534.2214965820312 998.6323852539062 517.0385131835938 999.5 500 999.5 Z" stroke="none"/>
        <path d="M 500 1 C 482.978271484375 1 465.8123779296875 1.86676025390625 448.97900390625 3.57635498046875 C 432.389404296875 5.2611083984375 415.7197265625 7.80511474609375 399.4329833984375 11.13787841796875 C 383.3571166992188 14.427490234375 367.2678833007812 18.56451416015625 351.6122436523438 23.43389892578125 C 336.1318969726562 28.248779296875 320.707275390625 33.89422607421875 305.7670288085938 40.2135009765625 C 290.964599609375 46.474365234375 276.2890014648438 53.54400634765625 262.1476440429688 61.22601318359375 C 248.1067504882812 68.853515625 234.264404296875 77.26287841796875 221.0050048828125 86.22076416015625 C 207.8097534179688 95.1353759765625 194.885009765625 104.8002319335938 182.5901489257812 114.947021484375 C 170.3251342773438 125.06884765625 158.4026489257812 135.9047241210938 147.1537475585938 147.1537475585938 C 135.9047241210938 158.4026489257812 125.06884765625 170.3251342773438 114.947021484375 182.5901489257812 C 104.8002319335938 194.885009765625 95.1353759765625 207.8097534179688 86.22076416015625 221.0050048828125 C 77.26287841796875 234.264404296875 68.853515625 248.1067504882812 61.22601318359375 262.1476440429688 C 53.54400634765625 276.2890014648438 46.474365234375 290.964599609375 40.2135009765625 305.7670288085938 C 33.89422607421875 320.707275390625 28.248779296875 336.1318969726562 23.43389892578125 351.6122436523438 C 18.56451416015625 367.2678833007812 14.427490234375 383.3571166992188 11.13787841796875 399.4329833984375 C 7.80511474609375 415.7197265625 5.2611083984375 432.389404296875 3.57635498046875 448.97900390625 C 1.86676025390625 465.8123779296875 1 482.978271484375 1 500 C 1 517.021728515625 1.86676025390625 534.1876220703125 3.57635498046875 551.02099609375 C 5.2611083984375 567.610595703125 7.80511474609375 584.2802734375 11.13787841796875 600.5670166015625 C 14.427490234375 616.6428833007812 18.56451416015625 632.7321166992188 23.43389892578125 648.3877563476562 C 28.248779296875 663.8681640625 33.89422607421875 679.292724609375 40.2135009765625 694.2330322265625 C 46.474365234375 709.035400390625 53.54400634765625 723.7109985351562 61.22601318359375 737.8524169921875 C 68.853515625 751.8932495117188 77.26287841796875 765.735595703125 86.22076416015625 778.9949951171875 C 95.1353759765625 792.1902465820312 104.8002319335938 805.114990234375 114.947021484375 817.409912109375 C 125.06884765625 829.6748657226562 135.9047241210938 841.597412109375 147.1537475585938 852.8462524414062 C 158.4026489257812 864.09521484375 170.3251342773438 874.93115234375 182.5901489257812 885.052978515625 C 194.885009765625 895.1997680664062 207.8097534179688 904.8646240234375 221.0050048828125 913.7792358398438 C 234.264404296875 922.7371215820312 248.1067504882812 931.146484375 262.1476440429688 938.7739868164062 C 276.2890014648438 946.4559936523438 290.964599609375 953.525634765625 305.7670288085938 959.7864990234375 C 320.707275390625 966.1057739257812 336.1318969726562 971.751220703125 351.6122436523438 976.5661010742188 C 367.2678833007812 981.4354858398438 383.3571166992188 985.572509765625 399.4329833984375 988.8621215820312 C 415.7197265625 992.1948852539062 432.389404296875 994.7388916015625 448.97900390625 996.4236450195312 C 465.8123779296875 998.1332397460938 482.978271484375 999 500 999 C 517.021728515625 999 534.1876220703125 998.1332397460938 551.02099609375 996.4236450195312 C 567.610595703125 994.7388916015625 584.2802734375 992.1948852539062 600.5670166015625 988.8621215820312 C 616.6428833007812 985.572509765625 632.7321166992188 981.4354858398438 648.3877563476562 976.5661010742188 C 663.8681640625 971.751220703125 679.292724609375 966.1057739257812 694.2330322265625 959.7864990234375 C 709.035400390625 953.525634765625 723.7109985351562 946.4559936523438 737.8524169921875 938.7739868164062 C 751.8932495117188 931.146484375 765.735595703125 922.7371215820312 778.9949951171875 913.7792358398438 C 792.1902465820312 904.8646240234375 805.114990234375 895.1997680664062 817.409912109375 885.052978515625 C 829.6748657226562 874.93115234375 841.597412109375 864.09521484375 852.8462524414062 852.8462524414062 C 864.09521484375 841.597412109375 874.93115234375 829.6748657226562 885.052978515625 817.409912109375 C 895.1997680664062 805.114990234375 904.8646240234375 792.1902465820312 913.7792358398438 778.9949951171875 C 922.7371215820312 765.735595703125 931.146484375 751.8932495117188 938.7739868164062 737.8524169921875 C 946.4559936523438 723.7109985351562 953.525634765625 709.035400390625 959.7864990234375 694.2330322265625 C 966.1057739257812 679.292724609375 971.751220703125 663.8681640625 976.5661010742188 648.3877563476562 C 981.4354858398438 632.7321166992188 985.572509765625 616.6428833007812 988.8621215820312 600.5670166015625 C 992.1948852539062 584.2802734375 994.7388916015625 567.610595703125 996.4236450195312 551.02099609375 C 998.1332397460938 534.1876220703125 999 517.021728515625 999 500 C 999 482.978271484375 998.1332397460938 465.8123779296875 996.4236450195312 448.97900390625 C 994.7388916015625 432.389404296875 992.1948852539062 415.7197265625 988.8621215820312 399.4329833984375 C 985.572509765625 383.3571166992188 981.4354858398438 367.2678833007812 976.5661010742188 351.6122436523438 C 971.751220703125 336.1318969726562 966.1057739257812 320.707275390625 959.7864990234375 305.7670288085938 C 953.525634765625 290.964599609375 946.4559936523438 276.2890014648438 938.7739868164062 262.1476440429688 C 931.146484375 248.1067504882812 922.7371215820312 234.264404296875 913.7792358398438 221.0050048828125 C 904.8646240234375 207.8097534179688 895.1997680664062 194.885009765625 885.052978515625 182.5901489257812 C 874.93115234375 170.3251342773438 864.09521484375 158.4026489257812 852.8462524414062 147.1537475585938 C 841.597412109375 135.9047241210938 829.6748657226562 125.06884765625 817.409912109375 114.947021484375 C 805.114990234375 104.8002319335938 792.1902465820312 95.1353759765625 778.9949951171875 86.22076416015625 C 765.735595703125 77.26287841796875 751.8932495117188 68.853515625 737.8524169921875 61.22601318359375 C 723.7109985351562 53.54400634765625 709.035400390625 46.474365234375 694.2330322265625 40.2135009765625 C 679.292724609375 33.89422607421875 663.8681640625 28.248779296875 648.3877563476562 23.43389892578125 C 632.7321166992188 18.56451416015625 616.6428833007812 14.427490234375 600.5670166015625 11.13787841796875 C 584.2802734375 7.80511474609375 567.610595703125 5.2611083984375 551.02099609375 3.57635498046875 C 534.1876220703125 1.86676025390625 517.021728515625 1 500 1 M 500 0 C 776.1423950195312 0 1000 223.8576049804688 1000 500 C 1000 776.1423950195312 776.1423950195312 1000 500 1000 C 223.8576049804688 1000 0 776.1423950195312 0 500 C 0 223.8576049804688 223.8576049804688 0 500 0 Z" stroke="none" fill="#142450"/>
      </g>
    </g>
    <g id="Path_1046" data-name="Path 1046" transform="translate(901 694) rotate(90)" fill="#e2dbd2">
      <path d="M 499.5 499.5 L 0.5 499.5 L 0.5 0.5 L 499.5 0.5 L 499.5 499.5 Z" stroke="none"/>
      <path d="M 1 1 L 1 499 L 499 499 L 499 1 L 1 1 M 0 0 L 500 0 L 500 500 L 0 500 L 0 0 Z" stroke="none" fill="#e2dbd2"/>
    </g>
  </g>
</svg>
